<svg xmlns="http://www.w3.org/2000/svg" viewBox="0 0 100 100">
  <defs>
    <linearGradient id="bg" x1="0%" y1="0%" x2="100%" y2="100%">
      <stop offset="0%" style="stop-color:#1d4ed8"/>
      <stop offset="100%" style="stop-color:#7c3aed"/>
    </linearGradient>
  </defs>
  <rect width="100" height="100" rx="22" fill="url(#bg)"/>
  <!-- Piano keys base -->
  <rect x="15" y="30" width="70" height="45" rx="4" fill="rgba(0,0,0,0.4)"/>
  <!-- White keys -->
  <rect x="18" y="33" width="9" height="39" rx="2" fill="white"/>
  <rect x="29" y="33" width="9" height="39" rx="2" fill="white"/>
  <rect x="40" y="33" width="9" height="39" rx="2" fill="white"/>
  <rect x="51" y="33" width="9" height="39" rx="2" fill="white"/>
  <rect x="62" y="33" width="9" height="39" rx="2" fill="white"/>
  <rect x="73" y="33" width="9" height="39" rx="2" fill="white"/>
  <!-- Black keys -->
  <rect x="25" y="33" width="6" height="24" rx="2" fill="#1e1b4b"/>
  <rect x="36" y="33" width="6" height="24" rx="2" fill="#1e1b4b"/>
  <rect x="58" y="33" width="6" height="24" rx="2" fill="#1e1b4b"/>
  <rect x="69" y="33" width="6" height="24" rx="2" fill="#1e1b4b"/>
  <!-- Active key glow -->
  <rect x="40" y="33" width="9" height="39" rx="2" fill="#818cf8" opacity="0.5"/>
</svg>
