<svg xmlns="http://www.w3.org/2000/svg" viewBox="0 0 100 100">
  <defs>
    <linearGradient id="bg" x1="0%" y1="0%" x2="100%" y2="100%">
      <stop offset="0%" style="stop-color:#06b6d4"/>
      <stop offset="100%" style="stop-color:#6366f1"/>
    </linearGradient>
  </defs>
  <rect width="100" height="100" rx="22" fill="url(#bg)"/>
  <!-- Monitor screen -->
  <rect x="18" y="22" width="64" height="44" rx="4" fill="rgba(0,0,0,0.5)"/>
  <rect x="22" y="26" width="56" height="36" rx="2" fill="#0f172a"/>
  <!-- Monitor stand -->
  <rect x="44" y="66" width="12" height="8" fill="rgba(255,255,255,0.3)"/>
  <rect x="36" y="74" width="28" height="4" rx="2" fill="rgba(255,255,255,0.3)"/>
  <!-- CPU graph bars -->
  <rect x="28" y="50" width="6" height="8" rx="1" fill="#34d399"/>
  <rect x="37" y="44" width="6" height="14" rx="1" fill="#34d399"/>
  <rect x="46" y="38" width="6" height="20" rx="1" fill="#fbbf24"/>
  <rect x="55" y="42" width="6" height="16" rx="1" fill="#34d399"/>
  <rect x="64" y="35" width="6" height="23" rx="1" fill="#f87171"/>
  <!-- Graph line -->
  <polyline points="31,52 40,46 49,40 58,44 67,37" fill="none" stroke="rgba(255,255,255,0.6)" stroke-width="1.5" stroke-linecap="round" stroke-linejoin="round"/>
</svg>
